<?xml version="1.0" encoding="utf-8"?>
<!-- Generator: Adobe Illustrator 24.3.0, SVG Export Plug-In . SVG Version: 6.00 Build 0)  -->
<svg version="1.1" id="Layer_1" xmlns="http://www.w3.org/2000/svg" xmlns:xlink="http://www.w3.org/1999/xlink" x="0px" y="0px"
	 viewBox="0 0 900 900" style="enable-background:new 0 0 900 900;" xml:space="preserve">
<style type="text/css">
	.st0{fill:#F7F0ED;}
	.st1{opacity:0.27;fill:#640917;enable-background:new    ;}
	.st2{fill:#E25959;stroke:#640917;stroke-width:3;stroke-linecap:round;stroke-linejoin:round;stroke-miterlimit:10;}
	.st3{fill:#FFFFFF;stroke:#640917;stroke-width:3;stroke-linecap:round;stroke-linejoin:round;stroke-miterlimit:10;}
	.st4{fill:#F7F0ED;stroke:#640917;stroke-width:3;stroke-linecap:round;stroke-linejoin:round;stroke-miterlimit:10;}
	.st5{opacity:0.16;fill:#640917;enable-background:new    ;}
	.st6{fill:#640917;stroke:#640917;stroke-width:3;stroke-linecap:round;stroke-linejoin:round;stroke-miterlimit:10;}
	.st7{opacity:0.1;fill:#640917;enable-background:new    ;}
	.st8{fill:#E25959;}
	.st9{fill:none;stroke:#F7F0ED;stroke-width:4.306;stroke-linecap:round;stroke-miterlimit:10;}
	
		.st10{opacity:0.27;fill:none;stroke:#640917;stroke-width:4.306;stroke-linecap:round;stroke-miterlimit:10;enable-background:new    ;}
	.st11{fill:none;stroke:#E25959;stroke-width:4.306;stroke-linecap:round;stroke-miterlimit:10;}
	
		.st12{opacity:0.1;fill:none;stroke:#640917;stroke-width:4.306;stroke-linecap:round;stroke-miterlimit:10;enable-background:new    ;}
	.st13{fill:none;stroke:#FFFFFF;stroke-width:4.306;stroke-linecap:round;stroke-miterlimit:10;}
	.st14{opacity:0.1;fill:none;stroke:#640917;stroke-width:3;stroke-linecap:round;stroke-miterlimit:10;enable-background:new    ;}
	.st15{fill:#FFD671;stroke:#640917;stroke-width:3;stroke-miterlimit:10;}
	.st16{fill:#E25959;stroke:#640917;stroke-width:3;stroke-linecap:round;stroke-miterlimit:10;}
	.st17{fill:#B1C9C7;stroke:#640917;stroke-width:3;stroke-miterlimit:10;}
	.st18{fill:none;stroke:#640917;stroke-width:3;stroke-linecap:round;stroke-miterlimit:10;}
	.st19{fill:#EDB19B;stroke:#640917;stroke-width:3;stroke-linecap:round;stroke-miterlimit:10;}
	.st20{fill:#FCD3B6;stroke:#640917;stroke-width:3;stroke-linecap:round;stroke-miterlimit:10;}
	.st21{opacity:0.83;}
	.st22{fill:#EAAA96;}
	.st23{fill:#CDE0DF;stroke:#640917;stroke-width:3;stroke-miterlimit:10;}
	.st24{opacity:0.13;fill:#640917;enable-background:new    ;}
	.st25{opacity:0.83;fill:#EAAA96;enable-background:new    ;}
	.st26{fill:#FFFFFF;stroke:#640917;stroke-width:3;stroke-linecap:round;stroke-miterlimit:10;}
	.st27{fill:#DBDBDB;stroke:#640917;stroke-width:3;stroke-linecap:round;stroke-miterlimit:10;}
	.st28{fill:#B1C9C7;stroke:#640917;stroke-width:3.0001;stroke-miterlimit:10.0004;}
	.st29{fill:none;stroke:#66321E;stroke-width:13.2951;stroke-linecap:round;stroke-miterlimit:10;}
</style>
<g>
	<g id="XMLID_10863_">
		<rect id="XMLID_10987_" x="605.1" y="265.5" class="st0" width="175.1" height="311.5"/>
		<g id="XMLID_10974_">
			<polygon id="XMLID_10910_" class="st1" points="119.8,595 784.5,595 769.4,567.3 119.8,538 			"/>
			<polygon id="XMLID_10893_" class="st2" points="119.8,583.7 769.4,583.7 769.4,556 119.8,576.7 			"/>
			<rect id="XMLID_10986_" x="119.8" y="266.7" class="st2" width="649.6" height="310.3"/>
			<path id="XMLID_10985_" class="st3" d="M151.2,235.5v313.9c0,0,91.5-1.8,208.4-21.9c16.4-2.8,33.2-1.6,48.8,4
				c20.2,7.3,36.2,17.9,36.2,17.9l1.8,0.3V235.8l-1.8-0.3c0,0-16-10.6-36.2-17.9c-15.6-5.6-32.4-6.8-48.8-4
				C242.7,233.7,151.2,235.5,151.2,235.5z"/>
			<path id="XMLID_10984_" class="st4" d="M151.2,548.7l-13.8,14.4h308.9V549l-1.8-0.3c0,0-16-10.6-36.2-17.9
				c-15.6-5.6-32.4-6.8-48.8-4C242.7,546.9,151.2,548.7,151.2,548.7z"/>
			<path class="st3" d="M741.5,235.5v313.9c0,0-11.6-0.2-31.7-1.4c-36.5-2.2-101.3-7.5-176.7-20.5c-16.3-2.8-33.2-1.6-48.8,4
				c-20.2,7.3-36.2,17.9-36.2,17.9l-1.8,0.3V235.8l1.8-0.3c0,0,16-10.6,36.2-17.9c15.6-5.6,32.4-6.8,48.8-4
				C650,233.7,741.5,235.5,741.5,235.5z"/>
			<path id="XMLID_10982_" class="st4" d="M741.5,548.7l13.8,14.4H446.4V549l1.8-0.3c0,0,16-10.6,36.2-17.9
				c15.6-5.6,32.4-6.8,48.8-4C650,546.9,741.5,548.7,741.5,548.7z"/>
			<path id="XMLID_10981_" class="st5" d="M151.2,548.7l-13.8,14.4h308.9V549l-1.8-0.3c0,0-16-10.6-36.2-17.9
				c-15.6-5.6-32.4-6.8-48.8-4C242.7,546.9,151.2,548.7,151.2,548.7z"/>
			<path id="XMLID_10980_" class="st5" d="M741.5,548.7l13.8,14.4H446.4V549l1.8-0.3c0,0,16-10.6,36.2-17.9
				c15.6-5.6,32.4-6.8,48.8-4C650,546.9,741.5,548.7,741.5,548.7z"/>
			<polygon id="XMLID_10979_" class="st4" points="741.5,235.5 755.3,266.7 755.3,563.1 741.5,548.7 			"/>
			<polygon id="XMLID_10978_" class="st4" points="151.2,235.5 137.4,266.7 137.4,563.1 151.2,548.7 			"/>
			<path id="XMLID_10977_" class="st6" d="M427.8,563.1H465l0,0c0-7.4-6-13.3-13.4-13.3h-10.5C433.8,549.8,427.8,555.7,427.8,563.1
				L427.8,563.1z"/>
			<polyline id="XMLID_10976_" class="st7" points="427.8,226 446.4,235.8 446.4,549.8 427.8,539.2 			"/>
			<polyline id="XMLID_10975_" class="st7" points="465,226 446.4,235.8 446.4,549.8 465,539.2 			"/>
		</g>
		<path id="XMLID_10973_" class="st8" d="M669,259v36.2c14.6,1.3,27.5,2.2,38.3,2.9v-36.2C696.5,261.2,683.6,260.3,669,259z"/>
		<path id="XMLID_10972_" class="st9" d="M702.1,269.1c-10.8-0.7-11.4-0.5-26-1.8"/>
		<path id="XMLID_10971_" class="st9" d="M702.1,277.3c-10.8-0.7-11.4-0.5-26-1.8"/>
		<path id="XMLID_10970_" class="st8" d="M633.9,255.5v36.2c12.5,1.4,24.3,2.5,35.1,3.5V259C658.2,258,646.4,256.9,633.9,255.5z"/>
		<path id="XMLID_10969_" class="st8" d="M598.2,251.2v36.2c12.5,1.6,24.4,3.1,35.7,4.3v-36.2C622.6,254.3,610.7,252.8,598.2,251.2z
			"/>
		<path id="XMLID_10968_" class="st9" d="M628.3,263.1c-11.3-1.2-10.7-1.1-23.1-2.8"/>
		<path id="XMLID_10967_" class="st8" d="M563.1,246.2v36.2c12.1,1.9,23.8,3.5,35.1,5v-36.2C586.9,249.7,575.2,248.1,563.1,246.2z"
			/>
		<path id="XMLID_10966_" class="st9" d="M592.5,259.5c-11.3-1.5-11.1-1.4-23.2-3.3"/>
		<path id="XMLID_10965_" class="st8" d="M528,240.7v36.2c2.6,0.2,5.2,0.6,7.7,1c9.3,1.6,18.4,3.1,27.3,4.5v-36.2
			c-8.9-1.4-18-2.9-27.3-4.4C533.2,241.3,530.6,240.9,528,240.7z"/>
		<path id="XMLID_10964_" class="st9" d="M557.5,254.9c-8.9-1.4-19.2-3.3-21.7-3.6"/>
		<path id="XMLID_10963_" class="st9" d="M557.5,263.3c-8.9-1.4-19.2-3.3-21.7-3.6"/>
		<path id="XMLID_10962_" class="st8" d="M494.4,243.4v36.2c10.9-2.9,22.4-3.8,33.7-2.7v-36.2C516.7,239.6,505.3,240.5,494.4,243.4z
			"/>
		<path id="XMLID_10961_" class="st9" d="M523.3,250c-11.3-1.1-14.1-0.5-25.5,1.8"/>
		<path id="XMLID_10960_" class="st7" d="M494.4,279.6v222.7c13.5-3.6,27.6-4.1,41.4-1.7c68.4,11.8,128.1,17.3,165.9,19.8h5.7V298.1
			c-10.8-0.7-23.7-1.6-38.3-2.9c-10.8-1-22.5-2.1-35.1-3.5c-11.3-1.2-23.2-2.7-35.7-4.3c-11.3-1.5-23-3.2-35.1-5
			c-8.9-1.4-18-2.9-27.3-4.5c-2.6-0.5-5.2-0.8-7.7-1C516.7,275.8,505.3,276.7,494.4,279.6z"/>
		<path id="XMLID_10959_" class="st10" d="M189.2,271.4c10.8-0.7,23.7-1.6,38.3-2.9c10.8-1,22.6-2.1,35.1-3.5
			c11.3-1.2,23.2-2.7,35.7-4.3c11.3-1.5,23-3.2,35.1-5c8.9-1.4,18-2.9,27.4-4.4c2.6-0.4,5.1-0.8,7.7-1c11.3-1.1,22.7-0.2,33.7,2.7"
			/>
		<path id="XMLID_10958_" class="st10" d="M189.2,284.6c10.8-0.7,23.7-1.6,38.3-2.9c10.8-1,22.6-2.1,35.1-3.5
			c11.3-1.2,23.2-2.7,35.7-4.3c11.3-1.5,23-3.2,35.1-5c8.9-1.4,18.1-2.8,27.4-4.5c2.6-0.5,5.1-0.8,7.7-1c11.3-1,22.7-0.2,33.7,2.7"
			/>
		<path id="XMLID_10957_" class="st10" d="M189.2,298.2c10.8-0.7,23.7-1.6,38.3-2.9c10.8-1,22.6-2.1,35.1-3.5
			c11.3-1.2,23.2-2.7,35.7-4.3c11.3-1.5,23-3.2,35.1-5c8.9-1.4,18.1-2.8,27.4-4.5c2.6-0.5,5.1-0.8,7.7-1c11.3-1,22.7-0.2,33.7,2.7"
			/>
		<path id="XMLID_10956_" class="st10" d="M338.2,408.2c7.4-1.2,14.9-2.4,22.6-3.7c2.6-0.5,5.1-0.8,7.7-1c11.3-1,22.7-0.2,33.7,2.7"
			/>
		<path id="XMLID_10955_" class="st10" d="M189.2,424.7c10.8-0.7,23.7-1.6,38.3-2.9c6.1-0.5,12.5-1.1,19.2-1.8"/>
		<path id="XMLID_10954_" class="st10" d="M338.2,421.4c7.4-1.1,14.9-2.4,22.6-3.7c2.6-0.5,5.1-0.8,7.7-1c11.3-1,22.7-0.2,33.7,2.7"
			/>
		<path id="XMLID_10953_" class="st10" d="M189.2,437.8c10.8-0.7,23.7-1.6,38.3-2.9c6.5-0.6,13.3-1.2,20.4-1.9"/>
		<path id="XMLID_10952_" class="st10" d="M338.2,435c7.4-1.1,14.9-2.4,22.6-3.7c2.6-0.5,5.1-0.8,7.7-1c11.3-1,22.7-0.2,33.7,2.7"/>
		<path id="XMLID_10951_" class="st11" d="M382.2,461.6c6.7,0.3,13.4,1.3,19.9,3.1"/>
		<path id="XMLID_10950_" class="st11" d="M338.2,466.7c7.4-1.2,14.9-2.4,22.6-3.7"/>
		<path id="XMLID_10949_" class="st10" d="M380.8,474.7c7.2,0.2,14.4,1.2,21.4,3.1"/>
		<path id="XMLID_10948_" class="st10" d="M338.2,479.9c7.4-1.1,14.9-2.4,22.6-3.7"/>
		<path id="XMLID_10947_" class="st12" d="M380.8,488.4c7.2,0.2,14.4,1.2,21.4,3.1"/>
		<path id="XMLID_10946_" class="st10" d="M338.2,493.5c7.4-1.1,14.9-2.4,22.6-3.7"/>
		<path id="XMLID_10945_" class="st10" d="M189.2,451.5c10.8-0.7,23.7-1.6,38.3-2.9c6.5-0.6,13.3-1.2,20.4-1.9"/>
		<path id="XMLID_10943_" class="st11" d="M355.3,335.8c1.8-0.3,3.6-0.6,5.5-0.9c2.6-0.5,5.1-0.8,7.7-1c11.3-1,22.7-0.2,33.7,2.7"/>
		<path id="XMLID_10942_" class="st11" d="M355.3,323.5c1.8-0.3,3.6-0.6,5.5-0.9c2.6-0.5,5.1-0.8,7.7-1c11.3-1,22.7-0.2,33.7,2.7"/>
		<path id="XMLID_10941_" class="st11" d="M355.4,348.9c1.8-0.3,3.6-0.6,5.4-0.9c2.6-0.5,5.1-0.8,7.7-1c11.3-1,22.7-0.2,33.7,2.7"/>
		<path id="XMLID_10940_" class="st11" d="M355.4,362.6c1.8-0.3,3.6-0.6,5.4-0.9c2.6-0.5,5.1-0.8,7.7-1c11.3-1,22.7-0.2,33.7,2.7"/>
		<path id="XMLID_10939_" class="st11" d="M355.3,375.1c1.8-0.3,3.6-0.6,5.5-0.9c2.6-0.5,5.1-0.8,7.7-1c11.3-1,22.7-0.2,33.7,2.7"/>
		<line id="XMLID_10938_" class="st13" x1="669" y1="522.2" x2="669" y2="295.2"/>
		<line id="XMLID_10937_" class="st13" x1="669" y1="301.2" x2="669" y2="255.1"/>
		<path id="XMLID_10936_" class="st9" d="M662.1,266.6c-5.8-0.3-13.1-1.1-21.1-2.3"/>
		<path id="XMLID_10935_" class="st13" d="M628.3,313.4c-11.3-1.2-10.7-1.1-23.1-2.8"/>
		<path id="XMLID_10934_" class="st13" d="M592.5,309.8c-11.3-1.5-11.1-1.4-23.2-3.3"/>
		<path id="XMLID_10933_" class="st4" d="M557.5,305.2c-8.9-1.4-19.2-3.3-21.7-3.6"/>
		<path id="XMLID_10932_" class="st4" d="M523.3,300.4c-11.3-1-14.1-0.5-25.5,1.8"/>
		<path id="XMLID_10931_" class="st13" d="M662.1,317c-5.8-0.3-13.1-1.1-21.1-2.3"/>
		<path id="XMLID_10930_" class="st4" d="M628.3,347.3c-11.3-1.2-10.7-1.1-23.1-2.8"/>
		<path id="XMLID_10929_" class="st4" d="M592.5,343.7c-11.3-1.5-11.1-1.4-23.2-3.3"/>
		<path id="XMLID_10928_" class="st13" d="M557.5,339.1c-8.9-1.4-19.2-3.3-21.7-3.6"/>
		<path id="XMLID_10927_" class="st13" d="M662.1,350.9c-5.8-0.3-13.1-1.1-21.1-2.3"/>
		<path id="XMLID_10926_" class="st11" d="M628.3,405.8c-11.3-1.2-10.7-1.1-23.1-2.8"/>
		<path id="XMLID_10925_" class="st11" d="M557.5,397.6c-8.9-1.4-19.2-3.3-21.7-3.6"/>
		<path id="XMLID_10924_" class="st4" d="M523.3,392.8c-11.3-1-14.1-0.5-25.5,1.8"/>
		<path id="XMLID_10923_" class="st13" d="M662.1,409.4c-5.8-0.3-13.1-1.1-21.1-2.3"/>
		<path id="XMLID_10922_" class="st11" d="M592.5,371.8c-11.3-1.5-11.1-1.4-23.2-3.3"/>
		<path id="XMLID_10921_" class="st13" d="M557.5,367.2c-8.9-1.4-19.2-3.3-21.7-3.6"/>
		<path id="XMLID_10920_" class="st4" d="M523.3,362.4c-11.3-1-14.1-0.5-25.5,1.8"/>
		<path id="XMLID_10919_" class="st4" d="M662.1,379c-5.8-0.3-13.1-1.1-21.1-2.3"/>
		<path id="XMLID_10918_" class="st13" d="M628.3,440.8c-11.3-1.2-10.7-1.1-23.1-2.8"/>
		<path id="XMLID_10916_" class="st13" d="M557.5,432.6c-8.9-1.4-19.2-3.3-21.7-3.6"/>
		<path id="XMLID_10915_" class="st4" d="M523.3,427.8c-11.3-1-14.1-0.5-25.5,1.8"/>
		<path id="XMLID_10914_" class="st11" d="M662.1,444.4c-5.8-0.3-13.1-1.1-21.1-2.3"/>
		<line id="XMLID_10909_" class="st13" x1="633.9" y1="517.4" x2="633.9" y2="291.7"/>
		<line id="XMLID_10908_" class="st13" x1="633.9" y1="299.9" x2="633.9" y2="250.3"/>
		<line id="XMLID_10907_" class="st13" x1="598.2" y1="515.8" x2="598.2" y2="287.4"/>
		<line id="XMLID_10906_" class="st13" x1="598.2" y1="291.7" x2="598.2" y2="246.6"/>
		<line id="XMLID_10905_" class="st13" x1="563.1" y1="510.5" x2="563.1" y2="282.4"/>
		<path id="XMLID_10904_" class="st13" d="M702.1,315.2c-10.8-0.7-11.4-0.5-26-1.8"/>
		<path id="XMLID_10903_" class="st13" d="M702.1,323.4c-10.8-0.7-11.4-0.5-26-1.8"/>
		<path id="XMLID_10902_" class="st13" d="M702.1,347.9c-10.8-0.7-11.4-0.5-26-1.8"/>
		<path id="XMLID_10901_" class="st13" d="M702.1,356.1c-10.8-0.7-11.4-0.5-26-1.8"/>
		<path id="XMLID_10900_" class="st13" d="M702.1,376.4c-10.8-0.7-11.4-0.5-26-1.8"/>
		<path id="XMLID_10899_" class="st13" d="M702.1,384.6c-10.8-0.7-11.4-0.5-26-1.8"/>
		<path id="XMLID_10898_" class="st13" d="M702.1,409.2c-10.8-0.7-11.4-0.5-26-1.8"/>
		<path id="XMLID_10897_" class="st13" d="M702.1,417.3c-10.8-0.7-11.4-0.5-26-1.8"/>
		<path id="XMLID_10896_" class="st13" d="M702.1,441.8c-10.8-0.7-11.4-0.5-26-1.8"/>
		<path id="XMLID_10895_" class="st13" d="M702.1,450c-10.8-0.7-11.4-0.5-26-1.8"/>
		<line id="XMLID_10892_" class="st13" x1="563.1" y1="284.4" x2="563.1" y2="240.3"/>
		<line id="XMLID_10891_" class="st13" x1="528" y1="502.7" x2="528" y2="276.9"/>
		<line id="XMLID_10890_" class="st13" x1="528" y1="279.9" x2="528" y2="235.5"/>
		<g id="XMLID_10879_">
			<path id="XMLID_10889_" class="st10" d="M243.1,376.3c-5.4,0.5-10.6,1-15.6,1.5c-14.6,1.3-27.5,2.2-38.3,2.9"/>
			<path id="XMLID_10888_" class="st11" d="M243.1,336.7c-5.4,0.5-10.6,1-15.6,1.5c-14.6,1.3-27.5,2.2-38.3,2.9"/>
			<path id="XMLID_10887_" class="st10" d="M243.1,349.9c-5.4,0.5-10.6,1-15.6,1.5c-14.6,1.3-27.5,2.2-38.3,2.9"/>
			<path id="XMLID_10886_" class="st10" d="M243.1,363.5c-5.4,0.5-10.6,1-15.6,1.5c-14.6,1.3-27.5,2.2-38.3,2.9"/>
			<path id="XMLID_10885_" class="st10" d="M243.1,390c-5.4,0.5-10.6,1-15.6,1.5c-14.6,1.3-27.5,2.2-38.3,2.9"/>
			<path id="XMLID_10884_" class="st10" d="M328.2,365.8c-10.2,1.5-20.2,3-29.9,4.2c-8.3,1.1-16.3,2.1-24.1,3"/>
			<path id="XMLID_10883_" class="st10" d="M328.2,353c-10.2,1.5-20.2,3-29.9,4.2c-8.3,1.1-16.3,2.1-24.1,3"/>
			<path id="XMLID_10882_" class="st11" d="M328.2,326.2c-10.2,1.5-20.2,3-29.9,4.2c-8.3,1.1-16.3,2.1-24.1,3"/>
			<path id="XMLID_10881_" class="st10" d="M328.2,379.4c-10.2,1.5-20.2,3-29.9,4.2c-8.3,1.1-16.3,2.1-24.1,3"/>
			<path id="XMLID_10880_" class="st10" d="M328.2,339.3c-10.2,1.5-20.2,3-29.9,4.2c-8.3,1.1-16.3,2.1-24.1,3"/>
		</g>
		<g id="XMLID_10867_">
			<path id="XMLID_10878_" class="st10" d="M238.2,492.4c-5.4,0.5-10.6,1-15.6,1.5c-14.6,1.3-27.5,2.2-38.3,2.9"/>
			<path id="XMLID_10877_" class="st10" d="M184.2,470.4"/>
			<path id="XMLID_10876_" class="st14" d="M238.2,466"/>
			<path id="XMLID_10875_" class="st10" d="M238.2,479.6c-5.4,0.5-10.6,1-15.6,1.5c-14.6,1.3-27.5,2.2-38.3,2.9"/>
			<path id="XMLID_10874_" class="st10" d="M238.2,506.1c-5.4,0.5-10.6,1-15.6,1.5c-14.6,1.3-27.5,2.2-38.3,2.9"/>
			<path id="XMLID_10873_" class="st10" d="M287.2,486.9c-6.1,0.8-12.1,1.5-17.9,2.2"/>
			<path id="XMLID_10872_" class="st10" d="M323.2,481.9c-6.1,0.9-12.2,1.8-18.1,2.6"/>
			<path id="XMLID_10871_" class="st11" d="M285.8,474.3c-5.6,0.7-11.1,1.4-16.5,2"/>
			<path id="XMLID_10870_" class="st11" d="M323.2,469.1c-6.1,0.9-12.2,1.8-18.1,2.6"/>
			<path id="XMLID_10869_" class="st10" d="M288,500.4c-6.4,0.8-12.6,1.6-18.7,2.3"/>
			<path id="XMLID_10868_" class="st10" d="M323.2,495.5c-6.1,0.9-12.2,1.8-18.1,2.6"/>
		</g>
		<path id="XMLID_10866_" class="st7" d="M261.7,418v26.9c5.8-0.6,11.9-1.2,18.1-1.9c11.3-1.2,23.2-2.7,35.7-4.3
			c2.5-0.3,5.1-0.7,7.6-1v-26.9c-2.6,0.3-5.1,0.7-7.6,1c-12.5,1.6-24.4,3.1-35.7,4.3C273.6,416.8,267.6,417.4,261.7,418z"/>
		<polygon id="XMLID_10864_" class="st15" points="413.9,339.2 422.3,331 430.7,343.2 430.7,227.4 413.9,219.9 		"/>
	</g>
</g>
<path class="st1" d="M900,700.3v-90.7L767.3,497.7L748.7,482l-7.1,10.6v35.9v20.9c0,0-5-0.1-14.2-0.5c-4.8-0.2-10.6-0.5-17.5-0.9
	c-1.3-0.1-2.7-0.2-4.1-0.2l5.6,15.5l16,14c0,0,120.2,135.7,172.7,194L900,700.3L900,700.3z"/>
<path id="XMLID_7470_" class="st10" d="M189.2,312.2c10.8-0.7,23.7-1.6,38.3-2.9c10.8-1,22.6-2.1,35.1-3.5
	c11.3-1.2,23.2-2.7,35.7-4.3"/>
<path class="st1" d="M741.5,438.9v110.6c0,0-11.6-0.2-31.7-1.4c-4.8-1.7-7.8-2.7-7.8-2.7s-40.8-9.4-70.7-28.3
	c-43.7-27.7-78-67-123.3-87.3c-1.7-0.8-0.9-1-0.9-1l43.7-9.6L696,399.3L741.5,438.9z"/>
<g id="XMLID_13345_">
	<path id="XMLID_13377_" class="st16" d="M511.7,429.6l-5.5-0.8c-0.8-0.1-1-1.2-0.3-1.6l4.3-2.7c-0.6,0.6-0.8,1.8-0.5,2.9
		C510,428.4,510.9,429.3,511.7,429.6z"/>
	<path id="XMLID_13376_" class="st17" d="M547.2,435l-35.5-5.5c-0.8-0.3-1.7-1.2-2-2.3c-0.3-1.1-0.1-2.2,0.5-2.9c0,0,0,0,0,0
		l29.6-18.7L547.2,435z"/>
	<g id="XMLID_13373_">
		<line id="XMLID_13375_" class="st18" x1="624.5" y1="399" x2="605" y2="440.6"/>
		<path id="XMLID_13374_" class="st19" d="M595.9,453.6c-6.2-4.3-8.6-12.6-5.3-19.7l19.5-41.6c3.7-7.9,13.2-11.4,21.1-7.6
			c7.9,3.7,11.3,13.2,7.6,21.1l-19.5,41.6c-3.7,7.9-13.2,11.4-21.1,7.6C597.4,454.6,596.6,454.2,595.9,453.6z"/>
	</g>
	<g id="XMLID_13370_">
		<line id="XMLID_13372_" class="st18" x1="630.8" y1="394.7" x2="627.3" y2="445.3"/>
		<path id="XMLID_13371_" class="st19" d="M618.2,458.3c-4.4-3.1-7.2-8.4-6.8-14.1l3.6-50.6c0.6-8.7,8.2-15.3,17-14.7
			c8.8,0.6,15.3,8.2,14.7,17l-3.6,50.6c-0.6,8.7-8.2,15.3-17,14.7C623.2,460.9,620.5,459.9,618.2,458.3z"/>
	</g>
	<line id="XMLID_13369_" class="st18" x1="620.1" y1="412.9" x2="650" y2="449.5"/>
	<path id="XMLID_13368_" class="st19" d="M642.9,459.7c-1.2-0.8-2.2-1.8-3.2-3l-30-36.5c-5.6-6.8-4.6-16.8,2.2-22.3
		s16.8-4.6,22.3,2.2l30,36.5c5.6,6.8,4.6,16.8-2.2,22.3C656.4,463.6,648.6,463.7,642.9,459.7z"/>
	<path id="XMLID_13367_" class="st19" d="M618.7,375.6c-0.9,0.6-1.1,40.1-1.1,40.1l57.1,25.2c0,0,22.8-24.2,22.5-25.2
		c-0.3-1-13.3-40.3-14.2-41.4S618.7,375.6,618.7,375.6z"/>
	<g id="XMLID_13365_">
		<path id="XMLID_13366_" class="st20" d="M568,425.4c-1.3-0.9-2.4-2-3.4-3.3c-5.4-6.9-4.2-16.9,2.8-22.3l46.8-36.5
			c6-4.7,13.5-7,21.1-6.6l54.1,3c9.4,0.5,18,5.2,23.6,12.7l37.7,72.3c5.2,7.1,12.1,7.3,5.1,12.5c-7.1,5.2-17,3.7-22.2-3.4l-46-62.5
			l-53.8-3l-46.7,36.4C581.2,429.3,573.6,429.3,568,425.4z"/>
	</g>
	<polyline id="XMLID_13364_" class="st20" points="750.2,495.7 782.5,466.7 724.7,388 696.3,371.9 673.9,411.7 	"/>
	<g class="st21">
		<path class="st22" d="M673.9,411.8c0,0,0.1,0,0.1,0H673.9C673.9,411.8,673.9,411.8,673.9,411.8z"/>
		<path class="st22" d="M724.7,388l-14.1-8l-32.2,23.6l-4.5,8.1l0.2,0.2c37.7-6.8,62.9-2.8,81,17.5L724.7,388z"/>
	</g>
	<g id="XMLID_13362_">
		<path id="XMLID_13363_" class="st23" d="M542.4,404.7c66.7-14.6,190.3-42.4,203.7-46.4c7.5-3.5,18.5,27.8,8.3,30.3
			c-5.1,1.3-12.5,3.1-22.1,5.3c-16,3.7-67.7,15.9-95.5,22.2c-47.3,10.6-85.4,18.8-85.8,18.9C546.6,435.9,533.9,406.6,542.4,404.7z"
			/>
	</g>
	<path id="XMLID_13361_" class="st23" d="M550.9,434.8c-6.1,1.8-13-3.6-15.4-12c-2.4-8.4,0.7-16.6,6.8-18.3"/>
	<line id="XMLID_13360_" class="st18" x1="595.3" y1="419.9" x2="669.8" y2="437.4"/>
	<polygon id="XMLID_13359_" class="st24" points="505.1,428.1 536,426.6 741.4,381.5 745.1,386 751.2,389.2 549.3,435.1 	"/>
	<path id="XMLID_13358_" class="st20" d="M673.9,411.8c-3.4,4.9-9.1,7.4-14.8,6.9l-60.2-14.1c-8.5-2-17.1,3.3-19.1,11.8
		c-1.5,6.5,1.2,13,6.4,16.6c1.6,1.1,3.4,2,5.5,2.4l48.5,11.4c5.4,1.3,10.4,4.1,14.2,8.1l27.1,28.5c9.7,10.2,21.3,18.6,34,24.7
		l19.3,9.2l17.9-25.6"/>
	<path id="XMLID_13357_" class="st25" d="M779.2,463.4l-44.4,53.8l-19.3-9.2c-12.8-6.1-24.3-14.5-34-24.7l-27.1-28.5
		c-3.8-4-8.8-6.9-14.2-8.1l-48.5-11.4c-2-0.5-3.9-1.3-5.5-2.4c-5.2-3.6-7.9-10.1-6.4-16.6c1-4.3,3.7-7.8,7.2-9.9
		c-4.7,7.8-3,18.5,2.1,22.1c1.6,1.1,3.4,2,5.5,2.4l60.5,14c5.4,1.3,10.4,4.1,14.2,8.1l19.5,19.9c9.8,10.2,21.3,18.6,34,24.7l6.5,3.2
		L779.2,463.4z"/>
	<polygon id="XMLID_13356_" class="st26" points="737.2,539 721.7,524.6 779.7,462.5 789.3,471.4 	"/>
	<polygon class="st27" points="900,568 900,700.3 727.3,548.9 725.7,547.5 741.5,528.5 767.3,497.7 789.3,471.4 	"/>
	
		<ellipse id="XMLID_13354_" transform="matrix(0.9616 -0.2746 0.2746 0.9616 -73.647 220.3748)" class="st28" cx="750.3" cy="373.2" rx="11.6" ry="15.7"/>
	<path id="XMLID_13353_" class="st15" d="M755.2,382.1c-3.8,1.1-8.1-2.2-9.6-7.4c-1.5-5.2,0.4-10.3,4.2-11.4
		c3.8-1.1,8.1,2.2,9.6,7.4C760.9,375.9,759,381,755.2,382.1z"/>
	<polyline id="XMLID_13352_" class="st15" points="750.3,363.2 762.4,359.9 767.8,378.7 755.2,382.1 	"/>
	<line id="XMLID_13351_" class="st29" x1="729.1" y1="383.3" x2="729.4" y2="384.6"/>
	<path id="XMLID_13350_" class="st15" d="M767.8,378.7c-3.8,1.1-8.1-2.2-9.6-7.4c-1.5-5.2,0.4-10.3,4.2-11.4
		c3.8-1.1,8.1,2.2,9.6,7.4C773.5,372.5,771.6,377.6,767.8,378.7z"/>
	<g id="XMLID_13347_">
		<path id="XMLID_13349_" class="st15" d="M730.6,385.5c0,0-44.5,10-43.9,9.8"/>
		<path id="XMLID_13348_" class="st15" d="M684.1,399c-1.4-1-1.8-2.5-1.8-2.6c-0.6-2.4,0.8-4.8,3.2-5.5c0.1,0,0.2-0.1,0.3-0.1
			c1.9-0.4,32.1-7.2,43.8-9.8c2.4-0.5,4.9,1,5.4,3.4s-1,4.9-3.4,5.4c0,0-11,2.5-22,4.9c-5.5,1.2-11,2.5-15.1,3.4
			c-2.1,0.5-3.8,0.8-5,1.1l-1.4,0.3C686.3,400,685,399.6,684.1,399z"/>
	</g>
</g>
<g id="R4R2yj_1_">
	
		<image style="overflow:visible;" width="2400" height="1650" id="R4R2yj" xlink:href="D963E4287F4814A2.png"  transform="matrix(1 0 0 1 1129.0873 -212.8263)">
	</image>
</g>
<g id="snCJrC_1_">
	
		<image style="overflow:visible;" width="6960" height="5016" id="snCJrC" xlink:href="D963E4287F4814A6.jpg"  transform="matrix(1 0 0 1 -6568.54 -1881.36)">
	</image>
</g>
<g id="_x30_5jGPL_1_">
	
		<image style="overflow:visible;" width="564" height="3122" id="_x30_5jGPL" xlink:href="D963E4287F4814A1.jpg"  transform="matrix(1 0 0 1 909.9379 -965.97)">
	</image>
</g>
</svg>
